<?xml version="1.0" standalone="no"?>
<!DOCTYPE svg PUBLIC "-//W3C//DTD SVG 20010904//EN"
 "http://www.w3.org/TR/2001/REC-SVG-20010904/DTD/svg10.dtd">
<svg version="1.0" xmlns="http://www.w3.org/2000/svg"
 width="784.000000pt" height="784.000000pt" viewBox="0 0 784.000000 784.000000"
 preserveAspectRatio="xMidYMid meet">
<metadata>
Created by potrace 1.14, written by Peter Selinger 2001-2017
</metadata>
<g transform="translate(0.000000,784.000000) scale(0.100000,-0.100000)"
fill="#000000" stroke="none">
<path d="M5935 7829 c-123 -13 -269 -26 -650 -59 -192 -17 -356 -33 -362 -35
-10 -3 -13 -74 -13 -310 0 -168 -2 -305 -5 -305 -3 0 -173 84 -377 186 -357
179 -373 185 -388 167 -81 -100 -313 -373 -316 -373 -2 0 -195 94 -430 210
l-427 210 -196 -69 c-468 -165 -1010 -288 -1676 -381 -65 -9 -434 -50 -587
-66 -51 -5 -68 -10 -68 -21 0 -14 51 -218 216 -858 36 -137 75 -290 87 -339
l22 -90 217 -105 c120 -59 218 -108 218 -111 0 -3 -145 -18 -323 -34 -177 -16
-325 -31 -330 -33 -4 -2 -7 -299 -7 -659 l0 -654 264 -132 264 -133 -67 -155
c-168 -386 -381 -777 -565 -1033 -31 -42 -56 -87 -56 -99 0 -19 562 -1579 578
-1605 4 -6 98 -56 210 -112 l202 -101 0 -168 0 -167 395 -198 395 -197 75 0
c41 0 118 4 172 10 261 25 988 90 1014 90 19 0 19 18 19 746 0 410 3 744 8
742 4 -2 76 -38 161 -81 84 -43 157 -75 161 -70 4 4 51 109 104 233 54 123 99
227 102 229 3 3 86 -35 184 -84 l180 -90 91 24 c50 12 178 51 285 86 l194 62
0 -598 0 -599 402 -201 403 -201 95 6 c52 4 266 23 475 41 209 19 434 39 500
45 66 6 139 13 163 16 l42 5 0 1082 0 1082 128 54 c70 30 175 77 235 105 l107
50 0 726 0 725 -235 118 -235 117 -2 1487 -3 1488 -390 197 -390 197 -95 -1
c-52 0 -131 -4 -175 -9z m157 -1807 l3 -1718 150 57 c83 31 188 73 233 93 46
20 86 36 88 36 2 0 4 -278 4 -619 l0 -619 -177 -77 c-98 -42 -206 -89 -240
-103 l-63 -26 0 -1071 0 -1072 -117 -12 c-105 -10 -362 -33 -688 -62 -60 -5
-147 -12 -192 -16 l-83 -6 0 942 c0 687 -3 941 -11 941 -14 0 -339 -101 -709
-220 -489 -158 -846 -264 -859 -256 -5 3 -12 32 -15 63 -4 32 -11 90 -16 128
-6 39 -21 153 -35 255 -14 102 -27 205 -31 229 -3 26 -9 40 -15 34 -7 -7 -209
-483 -335 -788 l-33 -80 -47 100 c-95 200 -225 524 -286 712 -35 106 -66 193
-70 193 -5 0 -8 -556 -8 -1235 l0 -1235 -35 0 c-19 0 -159 -11 -312 -25 -153
-14 -357 -32 -453 -40 -96 -8 -196 -18 -222 -21 l-48 -6 0 1106 c0 677 -4
1106 -9 1106 -12 0 -17 -16 -31 -100 -72 -422 -291 -1145 -426 -1412 l-27 -53
-12 35 c-15 41 -362 990 -440 1200 -43 117 -51 148 -42 162 103 149 200 300
266 415 105 184 292 563 377 768 75 182 174 471 174 511 0 26 -1 26 -47 20
-27 -3 -109 -10 -183 -16 -74 -6 -201 -16 -282 -23 l-148 -13 0 562 0 561 88
6 c48 4 137 11 197 17 61 5 198 17 305 25 107 9 205 18 217 21 l23 4 0 229 c0
125 -2 230 -5 232 -4 5 -158 -11 -472 -47 -84 -10 -154 -16 -156 -13 -2 2 -32
114 -66 249 -33 135 -97 383 -140 552 l-79 307 67 6 c712 68 1350 180 1881
332 30 8 137 45 238 80 101 36 184 64 186 62 7 -8 476 -1004 476 -1011 0 -20
-510 -207 -705 -258 -44 -12 -97 -25 -117 -31 l-38 -10 0 -295 0 -296 38 6
c20 3 93 11 162 16 69 6 172 15 230 20 58 5 147 13 198 16 l92 7 0 -560 0
-560 -87 -7 c-205 -16 -528 -47 -532 -52 -8 -8 71 -158 140 -264 117 -181 327
-420 499 -567 69 -59 77 -64 110 -58 120 21 947 248 1375 377 l240 73 3 1223
c1 672 -1 1222 -5 1222 -6 0 -538 -690 -564 -732 -3 -5 -74 57 -156 139 -196
195 -599 540 -782 669 -22 16 -41 32 -41 35 0 9 698 853 708 857 10 3 374
-271 511 -386 63 -53 161 -140 217 -194 56 -54 104 -98 108 -98 3 0 6 220 6
489 l0 489 88 6 c48 4 130 11 182 16 52 5 156 14 230 20 74 7 221 20 325 30
105 10 205 18 222 19 l33 1 2 -1718z m-1692 -765 c213 -182 550 -494 550 -509
0 -5 -158 -214 -352 -463 l-352 -454 -70 77 c-164 183 -448 449 -792 742 l-41
35 335 447 336 446 100 -81 c56 -45 184 -153 286 -240z"/>
</g>
</svg>
